<?xml version="1.0" encoding="UTF-8"?>
<svg xmlns="http://www.w3.org/2000/svg" version="1.1" width="20cm" height="10cm" viewBox="0 0 295 98"><polygon fill="red" stroke="blue" stroke-width="1" points="138,70 135,68 140,64 143,65 138,70 "/><polygon fill="red" stroke="blue" stroke-width="1" points="46,101 45,101 44,100 44,100 45,99 46,99 46,99 46,99 47,99 48,98 47,97 48,97 48,97 47,97 47,96 47,95 46,95 46,95 45,95 44,94 44,94 45,93 46,93 46,93 46,93 47,93 48,93 48,93 48,93 48,94 48,94 49,94 48,95 48,95 48,96 49,96 50,96 51,96 51,97 51,98 50,98 49,98 48,99 49,100 48,100 48,100 49,100 48,101 47,102 46,102 46,101 46,101 "/><polygon fill="red" stroke="blue" stroke-width="1" points="10,84 12,84 11,91 9,91 10,84 "/><polygon fill="red" stroke="blue" stroke-width="1" points="143,61 145,62 143,64 140,63 143,61 "/><polygon fill="red" stroke="blue" stroke-width="1" points="132,48 137,50 139,51 138,52 131,49 132,48 "/><polygon fill="red" stroke="blue" stroke-width="1" points="126,93 127,92 130,94 132,92 129,90 130,89 137,93 136,94 136,94 134,96 134,96 133,97 126,93 "/><polygon fill="red" stroke="blue" stroke-width="1" points="127,26 128,26 127,27 126,27 127,26 "/><polygon fill="red" stroke="blue" stroke-width="1" points="96,79 97,79 94,77 95,76 100,78 99,79 99,79 98,80 98,80 97,81 92,79 93,78 96,79 "/><polygon fill="red" stroke="blue" stroke-width="1" points="36,63 35,67 37,67 37,68 40,68 40,64 36,63 "/><polygon fill="red" stroke="blue" stroke-width="1" points="129,26 131,27 130,28 128,27 129,26 "/><polygon fill="red" stroke="blue" stroke-width="1" points="160,54 161,55 157,59 156,58 160,54 "/><polygon fill="red" stroke="blue" stroke-width="1" points="47,91 50,87 52,88 53,87 50,86 51,85 48,83 51,80 50,79 46,83 48,84 47,85 50,86 49,87 48,87 45,90 47,91 "/><polygon fill="red" stroke="blue" stroke-width="1" points="131,49 126,47 127,45 132,48 131,49 "/><polygon fill="red" stroke="blue" stroke-width="1" points="109,32 107,31 108,30 111,31 109,32 "/><polygon fill="red" stroke="blue" stroke-width="1" points="98,46 98,46 98,45 100,46 100,46 99,47 95,51 94,52 93,53 91,52 98,46 "/><polygon fill="red" stroke="blue" stroke-width="1" points="180,93 181,94 179,96 177,95 180,93 "/><polygon fill="red" stroke="blue" stroke-width="1" points="76,66 78,64 77,63 75,65 76,66 "/><polygon fill="red" stroke="blue" stroke-width="1" points="108,47 112,49 110,50 106,48 108,47 "/><polygon fill="red" stroke="blue" stroke-width="1" points="82,66 80,65 81,64 83,65 82,66 "/><polygon fill="red" stroke="blue" stroke-width="1" points="116,85 117,86 116,87 115,87 116,85 "/><polygon fill="red" stroke="blue" stroke-width="1" points="129,43 130,42 133,43 132,44 129,43 "/><polygon fill="red" stroke="blue" stroke-width="1" points="99,51 101,50 103,51 101,52 101,51 100,51 99,51 "/><polygon fill="red" stroke="blue" stroke-width="1" points="235,29 236,28 238,29 237,30 235,29 "/><polygon fill="red" stroke="blue" stroke-width="1" points="119,56 119,56 119,56 118,57 127,61 128,60 119,56 "/><polygon fill="red" stroke="blue" stroke-width="1" points="5,29 0,34 -4,32 1,27 5,29 "/><polygon fill="red" stroke="blue" stroke-width="1" points="149,55 153,58 152,59 148,57 149,55 "/><polygon fill="red" stroke="blue" stroke-width="1" points="94,83 96,84 93,86 92,86 94,83 "/><polygon fill="red" stroke="blue" stroke-width="1" points="24,80 25,79 33,83 34,83 33,84 32,84 24,80 "/><polygon fill="red" stroke="blue" stroke-width="1" points="74,93 75,92 81,95 80,96 74,93 "/><polygon fill="red" stroke="blue" stroke-width="1" points="120,53 119,53 118,52 118,52 122,48 124,49 120,53 "/><polygon fill="red" stroke="blue" stroke-width="1" points="155,57 153,56 156,53 158,54 155,57 "/><polygon fill="red" stroke="blue" stroke-width="1" points="121,38 119,37 121,34 124,36 121,38 "/><polygon fill="red" stroke="blue" stroke-width="1" points="134,76 133,77 128,75 130,74 134,76 "/><polygon fill="red" stroke="blue" stroke-width="1" points="64,92 70,95 67,98 66,98 67,96 64,95 63,96 61,95 64,92 "/><polygon fill="red" stroke="blue" stroke-width="1" points="52,54 53,53 55,55 54,56 52,54 "/><polygon fill="red" stroke="blue" stroke-width="1" points="100,46 102,48 102,48 99,47 100,46 "/><polygon fill="red" stroke="blue" stroke-width="1" points="183,88 179,85 181,84 185,86 183,88 "/><polygon fill="red" stroke="blue" stroke-width="1" points="150,54 148,53 152,50 154,51 150,54 "/><polygon fill="red" stroke="blue" stroke-width="1" points="256,46 258,47 253,51 256,53 256,53 252,52 250,54 248,53 256,46 "/><polygon fill="red" stroke="blue" stroke-width="1" points="168,59 164,63 166,64 169,60 171,61 172,60 168,59 "/><polygon fill="red" stroke="blue" stroke-width="1" points="185,88 187,89 182,93 181,92 185,88 "/><polygon fill="red" stroke="blue" stroke-width="1" points="43,30 42,30 41,31 42,31 43,31 44,32 43,33 44,33 46,32 45,31 44,32 43,31 43,30 "/><polygon fill="red" stroke="blue" stroke-width="1" points="237,44 238,44 239,44 238,45 237,44 "/><polygon fill="red" stroke="blue" stroke-width="1" points="119,53 117,54 117,54 118,52 119,53 "/><polygon fill="red" stroke="blue" stroke-width="1" points="230,48 230,47 233,46 233,46 230,48 "/><polygon fill="red" stroke="blue" stroke-width="1" points="25,40 25,42 24,44 22,46 19,47 16,48 13,47 10,46 8,44 8,41 9,39 10,37 14,36 16,36 16,37 14,37 12,38 10,40 10,41 10,44 12,45 14,46 16,46 20,46 21,45 22,44 23,42 23,40 25,40 "/><polygon fill="red" stroke="blue" stroke-width="1" points="159,65 153,61 154,60 160,63 159,65 "/><polygon fill="red" stroke="blue" stroke-width="1" points="126,73 128,71 128,71 130,70 129,70 129,69 128,68 127,69 124,72 126,73 "/><polygon fill="red" stroke="blue" stroke-width="1" points="9,46 37,59 34,62 30,60 27,62 25,62 28,59 25,57 22,60 20,60 23,56 20,55 18,58 16,57 19,54 16,53 13,55 11,55 14,52 7,48 9,46 "/><polygon fill="red" stroke="blue" stroke-width="1" points="5,81 3,81 3,83 1,83 2,81 0,81 0,83 -2,83 -2,81 -2,81 -2,80 7,81 7,81 7,81 6,83 5,83 5,81 "/><polygon fill="red" stroke="blue" stroke-width="1" points="23,86 24,85 32,89 33,89 32,90 31,90 23,86 "/><polygon fill="red" stroke="blue" stroke-width="1" points="25,74 26,73 34,77 35,77 34,78 33,78 25,74 "/><polygon fill="red" stroke="blue" stroke-width="1" points="150,86 135,79 141,73 156,80 150,86 "/><polygon fill="red" stroke="blue" stroke-width="1" points="115,16 118,19 116,19 116,20 120,19 117,15 115,16 "/><polygon fill="red" stroke="blue" stroke-width="1" points="94,39 92,39 94,37 92,36 94,34 96,35 98,33 100,33 94,39 "/><polygon fill="red" stroke="blue" stroke-width="1" points="49,78 52,75 55,76 56,75 52,73 53,72 50,71 53,67 52,67 48,71 50,71 49,72 52,74 51,75 50,75 48,78 49,78 "/><polygon fill="red" stroke="blue" stroke-width="1" points="111,90 115,91 113,93 109,91 111,90 "/><polygon fill="red" stroke="blue" stroke-width="1" points="100,55 100,56 103,57 103,57 100,55 "/><polygon fill="red" stroke="blue" stroke-width="1" points="31,90 32,90 33,89 32,89 34,87 36,88 33,92 30,91 31,90 "/><polygon fill="red" stroke="blue" stroke-width="1" points="106,6 110,5 110,7 106,7 106,6 "/><polygon fill="red" stroke="blue" stroke-width="1" points="246,35 246,35 246,35 245,35 246,35 "/><polygon fill="red" stroke="blue" stroke-width="1" points="48,29 49,29 49,29 48,29 48,29 "/><polygon fill="red" stroke="blue" stroke-width="1" points="101,48 102,48 102,48 106,43 117,49 113,53 113,53 113,53 113,53 101,48 "/><polygon fill="red" stroke="blue" stroke-width="1" points="167,95 171,91 168,90 164,94 167,95 "/><polygon fill="red" stroke="blue" stroke-width="1" points="110,59 110,59 111,59 111,59 111,60 110,59 110,59 "/><polygon fill="red" stroke="blue" stroke-width="1" points="119,70 122,67 120,66 117,69 119,70 "/><polygon fill="red" stroke="blue" stroke-width="1" points="138,72 136,73 132,71 133,70 138,72 "/><polygon fill="red" stroke="blue" stroke-width="1" points="131,68 128,66 136,59 139,60 131,68 "/><polygon fill="red" stroke="blue" stroke-width="1" points="96,58 97,57 103,60 102,61 96,58 "/><polygon fill="red" stroke="blue" stroke-width="1" points="252,65 254,63 252,62 254,61 252,60 253,58 251,58 256,53 256,53 259,50 265,53 264,53 271,56 271,56 273,57 272,58 281,62 282,61 289,65 288,66 298,71 299,70 300,71 300,71 306,74 305,75 306,75 306,75 309,76 307,78 310,79 306,83 308,84 312,80 315,81 316,81 308,88 305,86 302,89 279,78 278,80 280,81 279,82 264,74 265,73 267,74 268,73 252,65 "/><polygon fill="red" stroke="blue" stroke-width="1" points="94,52 95,51 96,51 96,52 95,52 95,52 94,52 "/><polygon fill="red" stroke="blue" stroke-width="1" points="238,27 239,28 238,28 238,28 238,27 "/><polygon fill="red" stroke="blue" stroke-width="1" points="99,53 100,51 101,51 99,53 99,53 "/><polygon fill="red" stroke="blue" stroke-width="1" points="138,42 137,43 125,37 126,36 138,42 "/><polygon fill="red" stroke="blue" stroke-width="1" points="88,80 89,79 95,82 94,83 88,80 "/><polygon fill="red" stroke="blue" stroke-width="1" points="118,33 115,32 116,30 119,32 118,33 "/><polygon fill="red" stroke="blue" stroke-width="1" points="90,87 92,88 89,91 88,90 90,87 "/><polygon fill="red" stroke="blue" stroke-width="1" points="290,42 289,42 288,42 289,41 290,42 "/><polygon fill="red" stroke="blue" stroke-width="1" points="2,58 4,59 1,63 -1,62 2,58 "/><polygon fill="red" stroke="blue" stroke-width="1" points="123,32 120,30 121,29 124,30 123,32 "/><polygon fill="red" stroke="blue" stroke-width="1" points="102,55 105,52 107,53 104,56 102,55 "/><polygon fill="red" stroke="blue" stroke-width="1" points="150,49 147,48 148,46 151,47 150,49 "/><polygon fill="red" stroke="blue" stroke-width="1" points="116,54 116,54 113,53 113,53 115,54 116,55 116,54 "/><polygon fill="red" stroke="blue" stroke-width="1" points="117,56 118,56 119,56 119,56 117,56 "/><polygon fill="red" stroke="blue" stroke-width="1" points="98,46 96,45 97,45 98,46 98,46 "/><polygon fill="red" stroke="blue" stroke-width="1" points="58,51 58,52 56,54 55,53 58,51 "/><polygon fill="red" stroke="blue" stroke-width="1" points="108,55 109,54 111,55 110,56 108,55 "/><polygon fill="red" stroke="blue" stroke-width="1" points="162,56 164,56 163,58 161,57 162,56 "/><polygon fill="red" stroke="blue" stroke-width="1" points="139,51 140,49 139,49 137,50 139,51 "/><polygon fill="red" stroke="blue" stroke-width="1" points="69,63 71,61 69,60 68,62 69,63 "/><polygon fill="red" stroke="blue" stroke-width="1" points="0,73 9,73 9,72 7,72 7,71 6,71 6,72 5,71 5,70 6,70 6,70 9,70 9,69 2,68 2,69 5,70 5,70 5,70 5,71 4,71 4,71 3,71 3,71 1,71 0,73 "/><polygon fill="red" stroke="blue" stroke-width="1" points="91,74 89,73 93,69 94,70 91,74 "/><polygon fill="red" stroke="blue" stroke-width="1" points="107,89 109,90 107,93 105,92 107,89 "/><polygon fill="red" stroke="blue" stroke-width="1" points="119,42 121,43 118,45 117,45 119,42 "/><polygon fill="red" stroke="blue" stroke-width="1" points="144,46 138,43 139,42 145,45 144,46 "/><polygon fill="red" stroke="blue" stroke-width="1" points="239,52 240,52 239,53 238,52 239,52 "/><polygon fill="red" stroke="blue" stroke-width="1" points="75,77 77,78 74,80 74,81 74,81 74,81 71,80 71,80 68,79 69,78 69,78 70,78 73,80 75,77 "/><polygon fill="red" stroke="blue" stroke-width="1" points="32,84 33,84 34,83 33,83 35,81 37,82 34,86 31,85 32,84 "/><polygon fill="red" stroke="blue" stroke-width="1" points="85,69 87,67 84,65 82,67 83,68 81,69 83,70 85,69 85,69 "/><polygon fill="red" stroke="blue" stroke-width="1" points="136,47 138,49 137,50 135,48 136,47 "/><polygon fill="red" stroke="blue" stroke-width="1" points="7,48 -2,44 -5,48 -7,47 -3,43 -8,41 -5,39 -1,41 2,38 3,39 1,42 9,46 7,48 "/><polygon fill="red" stroke="blue" stroke-width="1" points="157,78 155,76 159,73 161,74 157,78 "/><polygon fill="red" stroke="blue" stroke-width="1" points="131,29 137,31 136,32 130,30 131,29 "/><polygon fill="red" stroke="blue" stroke-width="1" points="236,27 237,26 238,27 238,27 236,27 "/><polygon fill="red" stroke="blue" stroke-width="1" points="169,96 174,92 176,93 172,97 169,96 "/><polygon fill="red" stroke="blue" stroke-width="1" points="110,59 109,60 103,57 100,55 95,53 95,52 96,52 99,53 99,53 102,55 104,56 110,59 110,59 "/><polygon fill="red" stroke="blue" stroke-width="1" points="177,87 179,88 177,90 179,91 181,89 182,90 183,89 179,86 177,87 "/><polygon fill="red" stroke="blue" stroke-width="1" points="107,57 109,55 109,56 108,57 107,57 "/><polygon fill="red" stroke="blue" stroke-width="1" points="62,60 64,58 62,57 60,59 62,60 "/><polygon fill="red" stroke="blue" stroke-width="1" points="165,57 167,58 163,62 161,61 165,57 "/><polygon fill="red" stroke="blue" stroke-width="1" points="145,54 142,52 146,48 149,49 145,54 "/><polygon fill="red" stroke="blue" stroke-width="1" points="235,43 236,42 237,43 237,43 235,43 "/><polygon fill="red" stroke="blue" stroke-width="1" points="162,93 163,92 162,92 164,90 162,89 160,91 160,91 159,92 162,93 "/><polygon fill="red" stroke="blue" stroke-width="1" points="33,78 34,78 35,77 34,77 35,75 38,76 34,80 32,79 33,78 "/><polygon fill="red" stroke="blue" stroke-width="1" points="88,40 97,45 97,45 96,45 96,46 87,41 88,40 "/><polygon fill="red" stroke="blue" stroke-width="1" points="109,61 111,60 111,59 116,55 116,54 117,54 117,54 117,54 118,55 118,56 117,56 111,62 109,61 "/><polygon fill="red" stroke="blue" stroke-width="1" points="114,43 117,44 116,45 113,44 114,43 "/><polygon fill="red" stroke="blue" stroke-width="1" points="116,90 118,89 121,91 120,92 116,90 "/><polygon fill="red" stroke="blue" stroke-width="1" points="95,31 98,32 97,33 96,32 94,34 92,36 92,36 90,37 92,38 91,39 88,38 95,31 "/></svg>